<svg xmlns="http://www.w3.org/2000/svg" style="display: none;">
  <symbol id="icon-error" viewBox="0 0 20 20">
    <path fill-rule="evenodd" d="M10 18a8 8 0 100-16 8 8 0 000 16zM8.28 7.22a.75.75 0 00-1.06 1.06L8.94 10l-1.72 1.72a.75.75 0 101.06 1.06L10 11.06l1.72 1.72a.75.75 0 101.06-1.06L11.06 10l1.72-1.72a.75.75 0 00-1.06-1.06L10 8.94 8.28 7.22z" clip-rule="evenodd" />
  </symbol>
  
  <symbol id="icon-chevron-right" viewBox="0 0 20 20">
    <path fill-rule="evenodd" d="M7.21 14.77a.75.75 0 01.02-1.06L11.168 10 7.23 6.29a.75.75 0 111.04-1.08l4.5 4.25a.75.75 0 010 1.08l-4.5 4.25a.75.75 0 01-1.06-.02z" clip-rule="evenodd" />
  </symbol>
  
  <symbol id="icon-server" viewBox="0 0 24 24" fill="none" stroke="currentColor" stroke-width="2">
    <path stroke-linecap="round" stroke-linejoin="round" d="M19 21V5a2 2 0 00-2-2H7a2 2 0 00-2 2v16m14 0h2m-2 0h-5m-9 0H3m2 0h5M9 7h1m-1 4h1m4-4h1m-1 4h1m-5 10v-5a1 1 0 011-1h2a1 1 0 011 1v5m-4 0h4" />
  </symbol>
</svg>