<svg xmlns="http://www.w3.org/2000/svg" style="display: none;">
  <symbol id="icon-error" viewBox="0 0 20 20">
    <path fill-rule="evenodd" d="M10 18a8 8 0 100-16 8 8 0 000 16zM8.28 7.22a.75.75 0 00-1.06 1.06L8.94 10l-1.72 1.72a.75.75 0 101.06 1.06L10 11.06l1.72 1.72a.75.75 0 101.06-1.06L11.06 10l1.72-1.72a.75.75 0 00-1.06-1.06L10 8.94 8.28 7.22z" clip-rule="evenodd" />
  </symbol>
  
  <symbol id="icon-chevron-right" viewBox="0 0 20 20">
    <path fill-rule="evenodd" d="M7.21 14.77a.75.75 0 01.02-1.06L11.168 10 7.23 6.29a.75.75 0 111.04-1.08l4.5 4.25a.75.75 0 010 1.08l-4.5 4.25a.75.75 0 01-1.06-.02z" clip-rule="evenodd" />
  </symbol>
  
  <symbol id="icon-server" viewBox="0 0 24 24" fill="none" stroke="currentColor" stroke-width="2">
    <path stroke-linecap="round" stroke-linejoin="round" d="M19 21V5a2 2 0 00-2-2H7a2 2 0 00-2 2v16m14 0h2m-2 0h-5m-9 0H3m2 0h5M9 7h1m-1 4h1m4-4h1m-1 4h1m-5 10v-5a1 1 0 011-1h2a1 1 0 011 1v5m-4 0h4" />
  </symbol>

  <symbol id="icon-filter" viewBox="0 0 24 24" fill="none" stroke="currentColor" stroke-width="1.5">
    <path stroke-linecap="round" stroke-linejoin="round" d="M12 21.75l-3.75-3.75m3.75 3.75L15.75 18m-3.75 3.75V4.5m0 13.5h-3.75M12 18h3.75m-3.75-3.75h.008v.008H12v-.008zm-3.75 0h.008v.008h-.008v-.008zm7.5 0h.008v.008h-.008v-.008z" />
  </symbol>

  <symbol id="icon-check-circle" viewBox="0 0 24 24" fill="none" stroke="currentColor" stroke-width="1.5">
    <path stroke-linecap="round" stroke-linejoin="round" d="M9 12.75L11.25 15 15 9.75M21 12a9 9 0 11-18 0 9 9 0 0118 0z" />
  </symbol>

  <symbol id="icon-sun" viewBox="0 0 24 24" fill="none" stroke="currentColor" stroke-width="1.5">
    <path stroke-linecap="round" stroke-linejoin="round" d="M12 3v2.25m6.364.386-1.591 1.591M21 12h-2.25m-.386 6.364-1.591-1.591M12 18.75V21m-4.773-4.227-1.591 1.591M3 12h2.25m.386-4.364-1.591-1.591M12 7.5a4.5 4.5 0 1 1 0 9 4.5 4.5 0 0 1 0-9Z" />
  </symbol>

  <symbol id="icon-moon" viewBox="0 0 24 24" fill="none" stroke="currentColor" stroke-width="1.5">
    <path stroke-linecap="round" stroke-linejoin="round" d="M21.752 15.002A9.72 9.72 0 0 1 18 15.75c-5.385 0-9.75-4.365-9.75-9.75 0-1.33.266-2.597.748-3.752A9.753 9.753 0 0 0 3 11.25C3 16.635 7.365 21 12.75 21a9.753 9.753 0 0 0 9.002-5.998Z" />
  </symbol>

  <symbol id="icon-computer" viewBox="0 0 24 24" fill="none" stroke="currentColor" stroke-width="1.5">
    <path stroke-linecap="round" stroke-linejoin="round" d="M9 17.25v1.007a3 3 0 0 1-.879 2.122L7.5 21h9l-.621-.621A3 3 0 0 1 15 18.257V17.25m6-12V15a2.25 2.25 0 0 1-2.25 2.25H5.25A2.25 2.25 0 0 1 3 15V5.25m18 0A2.25 2.25 0 0 0 18.75 3H5.25A2.25 2.25 0 0 0 3 5.25m18 0V15a2.25 2.25 0 0 1-2.25 2.25H5.25A2.25 2.25 0 0 1 3 15V5.25" />
  </symbol>
</svg>